#N canvas 478 196 684 517 10;
#X declare -path DerivedData/mogees_onset~/Build/Products/Debug;
#N canvas 121 338 450 300 debug 0;
#X obj 41 33 declare -path DerivedData/mogees_onset~/Build/Products/Debug
;
#X restore 36 41 pd debug;
#N canvas 402 30 759 372 perform 0;
#X obj 90 64 inlet~;
#X obj 420 64 inlet timeGate;
#X obj 90 270 mogees_onset~;
#X obj 534 63 inlet analysisThreshold;
#X obj 287 64 inlet sensitivity;
#X msg 287 85 Sensitivity \$1;
#X msg 420 84 TimeGate \$1;
#X msg 534 84 AnalysisThreshold \$1;
#X text 193 246 This set's the block size to run at;
#X obj 269 311 outlet note;
#X obj 90 309 outlet rms;
#X obj 196 268 block~ 512;
#X msg 418 137 Training 1;
#X msg 525 137 Training 2;
#X msg 630 137 Training 0;
#X obj 154 64 inlet training;
#X msg 154 85 Training \$1;
#X obj 177 310 outlet feats;
#X connect 0 0 2 0;
#X connect 1 0 6 0;
#X connect 2 0 10 0;
#X connect 2 1 17 0;
#X connect 2 2 9 0;
#X connect 3 0 7 0;
#X connect 4 0 5 0;
#X connect 5 0 2 0;
#X connect 6 0 2 0;
#X connect 7 0 2 0;
#X connect 12 0 2 0;
#X connect 13 0 2 0;
#X connect 14 0 2 0;
#X connect 15 0 16 0;
#X connect 16 0 2 0;
#X restore 37 408 pd perform;
#X obj 37 94 adc~;
#X obj 58 117 env~;
#X floatatom 58 139 5 0 0 0 - - -, f 5;
#X obj 484 195 hsl 128 15 0 1 0 1 empty empty Sensitivity -2 -8 0 10
-262144 -1 -1 12700 1;
#X floatatom 481 215 5 0 0 0 - - -, f 5;
#X obj 483 258 hsl 128 15 0 200 0 1 empty empty Time_Gate -2 -8 0 10
-262144 -1 -1 5100 1;
#X obj 480 276 i;
#X floatatom 480 295 5 0 0 0 - - -, f 5;
#X obj 484 335 hsl 128 15 0.0001 0.003 0 1 empty empty Analysis_Threshold
-2 -8 0 10 -262144 -1 -1 1200 1;
#X floatatom 481 355 7 0 0 0 - - -, f 7;
#X obj 40 460 hsl 128 15 0 0.75 0 1 empty empty Input_RMS -2 -8 0 10
-262144 -1 -1 0 1;
#X obj 273 458 print note;
#X msg 51 205 1;
#X msg 81 205 2;
#X msg 112 205 3;
#X msg 141 205 4;
#X msg 172 205 5;
#X msg 195 256 0;
#X text 48 183 Click on each to start training corresponding gesture
;
#X text 192 239 Click 0 to stop training;
#X obj 185 458 print feats;
#X connect 1 0 12 0;
#X connect 1 1 22 0;
#X connect 1 2 13 0;
#X connect 2 0 1 0;
#X connect 2 1 3 0;
#X connect 3 0 4 0;
#X connect 5 0 6 0;
#X connect 5 0 1 2;
#X connect 7 0 8 0;
#X connect 8 0 9 0;
#X connect 8 0 1 3;
#X connect 10 0 1 4;
#X connect 10 0 11 0;
#X connect 14 0 1 1;
#X connect 15 0 1 1;
#X connect 16 0 1 1;
#X connect 17 0 1 1;
#X connect 18 0 1 1;
#X connect 19 0 1 1;
